<?xml version="1.0" encoding="UTF-8" standalone="no"?>
<svg
   xmlns:dc="http://purl.org/dc/elements/1.1/"
   xmlns:cc="http://creativecommons.org/ns#"
   xmlns:rdf="http://www.w3.org/1999/02/22-rdf-syntax-ns#"
   xmlns:svg="http://www.w3.org/2000/svg"
   xmlns="http://www.w3.org/2000/svg"
   xmlns:sodipodi="http://sodipodi.sourceforge.net/DTD/sodipodi-0.dtd"
   xmlns:inkscape="http://www.inkscape.org/namespaces/inkscape"
   width="16"
   height="16"
   viewBox="0 0 4.2333332 4.2333332"
   version="1.1"
   id="svg8"
   inkscape:version="1.0.1 (c497b03c, 2020-09-10)"
   sodipodi:docname="spring-bean.svg">
  <defs
     id="defs2">
    <inkscape:path-effect
       effect="powerclip"
       id="path-effect908"
       is_visible="true"
       lpeversion="1"
       inverse="true"
       flatten="false"
       hide_clip="false"
       message="Use fill-rule evenodd on &lt;b&gt;fill and stroke&lt;/b&gt; dialog if no flatten result after convert clip to paths." />
  </defs>
  <sodipodi:namedview
     id="base"
     pagecolor="#ffffff"
     bordercolor="#666666"
     borderopacity="1.0"
     inkscape:pageopacity="0.0"
     inkscape:pageshadow="2"
     inkscape:zoom="35.94"
     inkscape:cx="3.7327769"
     inkscape:cy="7.1374513"
     inkscape:document-units="px"
     inkscape:current-layer="layer1"
     inkscape:document-rotation="0"
     showgrid="true"
     units="px"
     inkscape:window-width="1440"
     inkscape:window-height="785"
     inkscape:window-x="0"
     inkscape:window-y="23"
     inkscape:window-maximized="1">
    <inkscape:grid
       type="xygrid"
       id="grid10" />
  </sodipodi:namedview>
  <metadata
     id="metadata5">
    <rdf:RDF>
      <cc:Work
         rdf:about="">
        <dc:format>image/svg+xml</dc:format>
        <dc:type
           rdf:resource="http://purl.org/dc/dcmitype/StillImage" />
        <dc:title />
      </cc:Work>
    </rdf:RDF>
  </metadata>
  <g
     inkscape:label="Layer 1"
     inkscape:groupmode="layer"
     id="layer1">
    <path
       id="path16"
       clip-path="none"
       style="opacity:0.694534;fill:#2f9e2f;fill-rule:nonzero;stroke-width:1.34457;fill-opacity:1"
       d="M 9 2.0371094 A 4.6919695 6.068679 38.734324 0 0 4.5 4.1855469 A 4.6919695 6.068679 38.734324 0 0 3.5507812 11.980469 C 3.7498829 10.932814 4.2274448 10.077194 4.8652344 9.390625 C 5.6169484 8.5814179 6.5565826 7.9703062 7.484375 7.375 C 9.3399591 6.1843872 11.089644 5.1064062 11.537109 2.9296875 C 11.538411 2.923353 11.543658 2.9144835 11.544922 2.9082031 L 11.582031 2.9160156 A 4.6919695 6.068679 38.734324 0 0 9 2.0371094 z M 12.283203 3.6914062 C 11.575711 5.8894565 9.6781507 7.0669535 7.9804688 8.15625 C 7.058713 8.7476833 6.1889702 9.3299813 5.5429688 10.025391 C 4.8969673 10.7208 4.4643131 11.504643 4.3769531 12.615234 L 4.3242188 12.611328 A 4.6919695 6.068679 38.734324 0 0 10.943359 11.060547 L 11 11 A 4.6919695 6.068679 38.734324 0 0 12.283203 3.6914062 z "
       transform="scale(0.26458333)" />
  </g>
</svg>
